<?xml version="1.0" encoding="UTF-8"?>
<svg id="Layer_1" xmlns="http://www.w3.org/2000/svg" version="1.1" xmlns:xlink="http://www.w3.org/1999/xlink" viewBox="0 0 512 512">
  <!-- Generator: Adobe Illustrator 29.1.0, SVG Export Plug-In . SVG Version: 2.1.0 Build 142)  -->
  <defs>
    <style>
      .st0 {
        fill: #566c83;
      }
    </style>
  </defs>
  <image width="402" height="218" transform="translate(-501.6 110.4)" xlink:href="Models-1.png"/>
  <path class="st0" d="M481.6,510.8H30.4V103.2L163.2,1.2h318.4v509.7ZM80.4,460.8h351.2V51.2h-251.4l-99.8,76.7v333Z"/>
  <path class="st0" d="M408.7,273.3c-6.9-6.9-15.5-10.4-25.5-10.4h-16.3c-9.6,0-17.8,3.3-24.5,9.8-5.7,5.5-9.3,12.1-10.8,19.8h-15.2c-9.5-12.8-22.9-21.7-39.9-26.6v-10.9h3c7.9,0,12.7-4.7,12.7-12.7v-2.4h3.7c13,0,20.2-7.2,20.2-20.2v-79.2c0-10-3.5-18.7-10.4-25.8-6.9-7.2-15.5-10.8-25.5-10.8h-47.8c-10,0-18.7,3.6-25.8,10.7-7.1,7.1-10.7,15.8-10.7,25.8v79.2c0,13,7.2,20.2,20.2,20.2h3.7v2.4c0,7.9,4.7,12.7,12.7,12.7h3v10.9c-17,4.9-30.4,13.8-39.9,26.6h-15c-1.3-7.8-4.9-14.4-10.7-19.9-6.9-6.4-15.3-9.7-24.7-9.7h-15.7c-10,0-18.7,3.5-25.8,10.4-7.2,6.9-10.8,15.5-10.8,25.5v79.2c0,10,3.6,18.7,10.7,25.8,7.1,7.1,15.8,10.7,25.8,10.7h15.7c9.5,0,17.8-3.4,24.8-10,5.8-5.6,9.4-12.3,10.7-20.1h15c6.9,9.3,15.6,16.7,25.7,21.8,10.9,5.5,22.7,8.3,35,8.3s24.1-2.8,34.7-8.4c9.9-5.1,18.4-12.5,25.4-21.8h15.2c1.5,7.7,5.1,14.4,10.8,20,6.7,6.7,15,10.1,24.5,10.1h16.3c10,0,18.6-3.6,25.5-10.8,6.9-7.1,10.4-15.8,10.4-25.8v-79.2c0-10-3.5-18.6-10.4-25.5ZM378.8,303.3v70.2h-7.3v-70.2h7.3ZM331,333.4v10.5h-25.7c-7.9,0-14.1,3.6-17.8,10.6-6.7,12.8-17,19-31.2,19s-24.4-6.2-31.2-18.9c-1.7-3.3-4.3-6-7.8-7.9-3.4-1.8-7-2.7-10.6-2.7h-25.7v-10.5h25.7c7.9,0,14.2-3.8,18.4-11.1h0c6.7-12.9,17-19.1,31.2-19.1s24.5,6.2,31.2,19h0c4.1,7.4,10.3,11.2,17.7,11.2h25.7ZM268.4,211.4v-79.2c0-3,.7-3.7,3.7-3.7s3.7.7,3.7,3.7v79.2c0,3-.7,3.7-3.7,3.7s-3.7-.7-3.7-3.7ZM243.6,132.2v79.2c0,2.8-.9,3.7-3.7,3.7s-3-.2-3-3.7v-79.2c0-3.7.7-3.7,3-3.7s3.7.7,3.7,3.7ZM140.6,303.3v70.2h-7.3v-70.2h7.3Z"/>
</svg>