<?xml version="1.0" encoding="UTF-8"?>
<svg id="Layer_1" xmlns="http://www.w3.org/2000/svg" version="1.1" viewBox="0 0 512 512">
  <!-- Generator: Adobe Illustrator 29.1.0, SVG Export Plug-In . SVG Version: 2.1.0 Build 142)  -->
  <defs>
    <style>
      .st0 {
        fill: none;
        stroke: #556b82;
        stroke-linecap: round;
        stroke-miterlimit: 10;
        stroke-width: 48px;
      }

      .st1 {
        fill: #556b82;
      }
    </style>
  </defs>
  <path class="st1" d="M61.8,255.5c0-107.1,87.1-194.2,194.2-194.2s54.7,5.5,78.9,15.9c12,5.2,26,2.6,35.2-6.7h0c15.4-15.8,10.3-42.1-10-50.8S302.4,0,256,0C187.6,0,123.4,26.5,75.2,74.7,27,122.9.5,187.1.5,255.5s.6,18,1.9,27.7c2,15.3,15.1,26.8,30.6,26.8h0c18.7,0,33.1-16.5,30.5-35-1-7.3-1.7-14.3-1.7-19.5Z"/>
  <path class="st1" d="M371.1,510.7c-76.8,0-139.4-62.5-139.4-139.4s62.5-139.4,139.4-139.4,139.4,62.5,139.4,139.4-62.5,139.4-139.4,139.4ZM371.1,280c-50.4,0-91.4,41-91.4,91.4s41,91.4,91.4,91.4,91.4-41,91.4-91.4-41-91.4-91.4-91.4Z"/>
  <path class="st1" d="M222.4,255.5c0-19.2,14.4-33.6,33.6-33.6s22,5.6,27.9,14.4c17.6-10.4,58.1-21.5,57.7-22.4l120.3-120.3c12-12,12-31.4,0-43.3h0c-12-12-31.4-12-43.3,0l-120.1,120.1c-13-6.4-27.4-9.7-42.5-9.7-25.6,0-49.6,9.8-67.3,27.6-17.8,17.8-27.6,41.7-27.6,67.3s9.8,49.6,27.6,67.3c7.1,7.1,15.1,12.9,23.8,17.3,3.5-21.1,11.4-40.7,22.8-57.8-7.9-6-12.9-15.6-12.9-26.8Z"/>
  <path class="st0" d="M362.2,348v24.8c0,5.2,4.3,9.5,9.5,9.5h46.4"/>
</svg>