<?xml version="1.0" encoding="UTF-8"?>
<svg id="Layer_1" xmlns="http://www.w3.org/2000/svg" version="1.1" viewBox="0 0 512 512">
  <!-- Generator: Adobe Illustrator 29.1.0, SVG Export Plug-In . SVG Version: 2.1.0 Build 142)  -->
  <defs>
    <style>
      .st0 {
        fill: #556b82;
      }
    </style>
  </defs>
  <path class="st0" d="M75,353.2h-.8c0,0-23.3-.3-23.3-.3-.2-.2-.5-.3-.7-.5V121.1l193.1,108.7,21.5.4,193.1-109v140.8c0,11.5,10.2,21,23.3,21.8,13.6.8,24.1-8.3,25.7-22.1v-1c.1,0,.1-1,.1-1-.4-33.3-.2-58.6,0-83.1.3-38.2.5-71.2-1.4-123.2v-2.5c0,0-.9-2.3-.9-2.3-6.7-18.9-23-32.2-41.6-33.9h-.7c0,0-418.2,0-418.2,0l-1.2.2C21.7,18.2,4.1,36.3,1.2,58v1.1c-.1,0-.2,294.6-.2,294.6v.6c.9,24.8,20.7,45.3,46,47.8,5.2.5,8.7.8,11,1,1.3,0,2.3.1,3.1.1s.1,0,.2,0c2.5,0,4.6-.5,6.6-1.3.9,0,1.9.1,3,.2h1.5c0,.1,1.5,0,1.5,0,13.3-1.6,23-12,23-24.9,0-12.4-9.2-22.6-21.9-24ZM50.1,64.1s0,0,0,0l406.7.6-201.5,115.4L50.1,64.1Z"/>
  <path class="st0" d="M510.9,374.5c-.8-13.5-7.6-25.9-18.7-34.1l-1.1-.8-176.5-88.8-.6-.3c-7.7-3.1-15.1-4.4-22-3.8-13.6,1.1-25.3,7.4-32.9,17.9-8.2,11.2-10.8,26.2-7.3,41,3.1,12.9,7.9,25.8,12.5,38.2,4.1,11.1,8.1,21.6,10.7,31.9-2.5,13.8-7.4,27.6-12.6,42-4.5,12.6-9.1,25.5-12.3,39.1l-.3,1.4v1.4c-.8,15.6,6.2,30.4,18.7,39.6,8,5.9,17.5,8.9,27.2,8.9s10.9-1,16.1-2.9l.9-.3,181.7-91.6,1.7-1.6c10.3-9.8,15.8-23.3,14.9-37.1ZM319.1,402.3l63.6-.2,1.2-.2c12.4-2,21.3-12.6,21-25.2-.3-12.3-9.4-22.2-21.6-23.5h-.9c0,0-63.4-.2-63.4-.2l-17.3-52.8,155.6,77.5-155.1,77.5,17-52.9Z"/>
  <path class="st0" d="M227.7,353.6l-2-.5-98.3.2-2.3.7c-12.7,4-20.4,14.4-19.3,25.9.9,9.1,8.2,20.3,25.5,22,7.5.8,25,1.1,42.9,1.1s39.5-.4,47.5-1.1c19-1.7,26.7-13.3,27.5-22.7.8-9-4.4-21.1-21.4-25.6Z"/>
  <path class="st0" d="M163.7,289.1c-11.1,2.5-18.8,12.3-18.7,23.9.1,11.8,8.4,21.6,20.1,24,4.1.8,13.8,1.2,23.2,1.2s18.1-.3,21.6-.9c11.8-1.8,20.3-11.6,20.7-23.7.4-11.8-7.3-21.9-18.7-24.5-6.5-1.5-41.6-1.5-48.2,0Z"/>
  <path class="st0" d="M224.5,414.6c-7.7-1.5-39.3-1.1-45.9,0-9.3,1.5-16.8,8-19.6,17.2-2.7,9.1-.2,18.6,6.7,25,5.8,5.3,14,6.4,15.6,6.6,4.3.5,11.8.7,19.5.7s16.2-.3,20.7-.9c12.7-1.8,21.8-11.7,22.1-24.1.3-12-7.7-22.3-19.1-24.4Z"/>
</svg>