<?xml version="1.0" encoding="utf-8"?>
<!-- Generator: Adobe Illustrator 29.1.0, SVG Export Plug-In . SVG Version: 9.03 Build 55587)  -->
<svg version="1.1" id="Layer_1" xmlns="http://www.w3.org/2000/svg" xmlns:xlink="http://www.w3.org/1999/xlink" x="0px" y="0px"
	 viewBox="0 0 512 512" style="enable-background:new 0 0 512 512;" xml:space="preserve">
<style type="text/css">
	.st0{fill:#556B81;}
</style>
<g>
	<path class="st0" d="M218.9,452.7H63.8c-21.1,0-38.4-17.2-38.4-38.4V42.6c0-21.1,17.2-38.4,38.4-38.4h247.8l104.6,74.8v191.3
		c0,13.8-11.2,25-25,25c-13.8,0-25-11.2-25-25V104.8l-70.7-50.6H75.4v348.4h143.4c13.8,0,25,11.2,25,25S232.7,452.7,218.9,452.7z"/>
</g>
<g>
	<path class="st0" d="M303.2,171.8H129.1c-13.8,0-25-11.2-25-25s11.2-25,25-25h174.2c13.8,0,25,11.2,25,25S317,171.8,303.2,171.8z"
		/>
</g>
<g>
	<path class="st0" d="M323.1,432.1c-6.7,0-13.4-2.2-19-6.6l-25.3-20.1c-10.8-8.6-12.6-24.3-4-35.1c8.6-10.8,24.3-12.6,35.1-4
		l11.1,8.8l35.4-38.5c9.3-10.2,25.2-10.8,35.3-1.5c10.2,9.3,10.8,25.2,1.5,35.3l-47.6,51.9C339.7,428.7,331.4,432.1,323.1,432.1z"/>
</g>
<g>
	<path class="st0" d="M219.1,261.8h-90c-13.8,0-25-11.2-25-25s11.2-25,25-25h90c13.8,0,25,11.2,25,25S232.9,261.8,219.1,261.8z"/>
</g>
<g>
	<path class="st0" d="M163.6,351.8h-34.5c-13.8,0-25-11.2-25-25s11.2-25,25-25h34.5c13.8,0,25,11.2,25,25S177.4,351.8,163.6,351.8z"
		/>
</g>
<g>
	<path class="st0" d="M334.7,510.3c-75.2,0-136.4-61.2-136.4-136.4s61.2-136.4,136.4-136.4s136.4,61.2,136.4,136.4
		S409.9,510.3,334.7,510.3z M334.7,287.5c-47.6,0-86.4,38.8-86.4,86.4c0,47.6,38.8,86.4,86.4,86.4c47.6,0,86.4-38.8,86.4-86.4
		C421.1,326.3,382.3,287.5,334.7,287.5z"/>
</g>
</svg>
